<?xml version="1.0" encoding="utf-8"?>
<svg xmlns="http://www.w3.org/2000/svg" xmlns:xlink="http://www.w3.org/1999/xlink" style="margin: auto; background: rgba(241, 242, 243, 0); display: block; shape-rendering: crispedges;" width="263px" height="263px" viewBox="0 0 100 100" preserveAspectRatio="xMidYMid">
    <g transform="rotate(0 50 50)">
        <rect x="46" y="29.5" rx="2" ry="2" width="8" height="5" fill="#93dbe9">
            <animate attributeName="opacity" values="1;0" keyTimes="0;1" dur="0.6451612903225806s" begin="-0.5865102639296187s" repeatCount="indefinite"></animate>
        </rect>
        </g><g transform="rotate(32.72727272727273 50 50)">
        <rect x="46" y="29.5" rx="2" ry="2" width="8" height="5" fill="#689cc5">
            <animate attributeName="opacity" values="1;0" keyTimes="0;1" dur="0.6451612903225806s" begin="-0.5278592375366569s" repeatCount="indefinite"></animate>
        </rect>
        </g><g transform="rotate(65.45454545454545 50 50)">
        <rect x="46" y="29.5" rx="2" ry="2" width="8" height="5" fill="#5e6fa3">
            <animate attributeName="opacity" values="1;0" keyTimes="0;1" dur="0.6451612903225806s" begin="-0.469208211143695s" repeatCount="indefinite"></animate>
        </rect>
        </g><g transform="rotate(98.18181818181819 50 50)">
        <rect x="46" y="29.5" rx="2" ry="2" width="8" height="5" fill="#3b4368">
            <animate attributeName="opacity" values="1;0" keyTimes="0;1" dur="0.6451612903225806s" begin="-0.4105571847507331s" repeatCount="indefinite"></animate>
        </rect>
        </g><g transform="rotate(130.9090909090909 50 50)">
        <rect x="46" y="29.5" rx="2" ry="2" width="8" height="5" fill="#191d3a">
            <animate attributeName="opacity" values="1;0" keyTimes="0;1" dur="0.6451612903225806s" begin="-0.3519061583577712s" repeatCount="indefinite"></animate>
        </rect>
        </g><g transform="rotate(163.63636363636363 50 50)">
        <rect x="46" y="29.5" rx="2" ry="2" width="8" height="5" fill="#d9dbee">
            <animate attributeName="opacity" values="1;0" keyTimes="0;1" dur="0.6451612903225806s" begin="-0.29325513196480935s" repeatCount="indefinite"></animate>
        </rect>
        </g><g transform="rotate(196.36363636363637 50 50)">
        <rect x="46" y="29.5" rx="2" ry="2" width="8" height="5" fill="#b3b7e2">
            <animate attributeName="opacity" values="1;0" keyTimes="0;1" dur="0.6451612903225806s" begin="-0.2346041055718475s" repeatCount="indefinite"></animate>
        </rect>
        </g><g transform="rotate(229.0909090909091 50 50)">
        <rect x="46" y="29.5" rx="2" ry="2" width="8" height="5" fill="#93dbe9">
            <animate attributeName="opacity" values="1;0" keyTimes="0;1" dur="0.6451612903225806s" begin="-0.1759530791788856s" repeatCount="indefinite"></animate>
        </rect>
        </g><g transform="rotate(261.8181818181818 50 50)">
        <rect x="46" y="29.5" rx="2" ry="2" width="8" height="5" fill="#689cc5">
            <animate attributeName="opacity" values="1;0" keyTimes="0;1" dur="0.6451612903225806s" begin="-0.11730205278592375s" repeatCount="indefinite"></animate>
        </rect>
        </g><g transform="rotate(294.54545454545456 50 50)">
        <rect x="46" y="29.5" rx="2" ry="2" width="8" height="5" fill="#5e6fa3">
            <animate attributeName="opacity" values="1;0" keyTimes="0;1" dur="0.6451612903225806s" begin="-0.05865102639296187s" repeatCount="indefinite"></animate>
        </rect>
        </g><g transform="rotate(327.27272727272725 50 50)">
        <rect x="46" y="29.5" rx="2" ry="2" width="8" height="5" fill="#3b4368">
            <animate attributeName="opacity" values="1;0" keyTimes="0;1" dur="0.6451612903225806s" begin="0s" repeatCount="indefinite"></animate>
        </rect>
        </g>
    </svg>